<?xml version="1.0" encoding="utf-8"?>
<!-- Generator: Adobe Illustrator 24.1.0, SVG Export Plug-In . SVG Version: 6.00 Build 0)  -->
<svg version="1.1" id="Capa_1" xmlns="http://www.w3.org/2000/svg" xmlns:xlink="http://www.w3.org/1999/xlink" x="0px" y="0px"
	 viewBox="0 0 219.2 219.2" style="enable-background:new 0 0 219.2 219.2;" xml:space="preserve">
<g>
	<path d="M182.2,42.9H36.9c-9,0-16.4,7.3-16.4,16.4s7.3,16.4,16.4,16.4h145.3c9,0,16.4-7.3,16.4-16.4S191.3,42.9,182.2,42.9z"/>
	<path d="M182.2,93.2H36.9c-9,0-16.4,7.3-16.4,16.4S27.9,126,36.9,126h145.3c9,0,16.4-7.3,16.4-16.4S191.3,93.2,182.2,93.2
		L182.2,93.2z"/>
	<path d="M182.2,143.5H36.9c-9,0-16.4,7.3-16.4,16.4s7.3,16.4,16.4,16.4h145.3c9,0,16.4-7.3,16.4-16.4S191.3,143.5,182.2,143.5z"/>
</g>
</svg>
